<svg viewBox="0 0 200 200" xmlns="http://www.w3.org/2000/svg">
  <path fill="#fe6700" d="M32.2,-57.3C44.1,-48.9,57.8,-45.1,69,-36.3C80.2,-27.5,89,-13.7,86.3,-1.6C83.6,10.6,69.4,21.3,60.2,33.5C51,45.8,46.7,59.7,37.5,63.7C28.3,67.6,14.2,61.6,0.1,61.4C-13.9,61.2,-27.9,66.8,-39.9,64.5C-52,62.2,-62.1,51.9,-68.6,39.9C-75.1,27.8,-78,13.9,-80.1,-1.2C-82.2,-16.3,-83.5,-32.7,-76.2,-43.4C-68.9,-54.1,-53,-59.1,-38.9,-66.2C-24.7,-73.3,-12.4,-82.4,-1.1,-80.5C10.2,-78.6,20.3,-65.7,32.2,-57.3Z" transform="translate(100 100)" />
</svg>